_states
version=1
nRows=64
nColumns=11
inDegrees=yes

# SIMM Motion File Header:
name _states
datacolumns 11
datarows 64
otherdata 1
range 1.49408883 1.83800175
endheader
time	/jointset/boatJoint/bJoint_3/value	/jointset/boatJoint/bJoint_3/speed	/jointset/boatJoint/bJoint_4/value	/jointset/boatJoint/bJoint_4/speed	/jointset/baseJoint/baseangle/value	/jointset/baseJoint/baseangle/speed	/jointset/lowerJoint/kneeangle/value	/jointset/lowerJoint/kneeangle/speed	/jointset/bladeJoint/bladeangle/value	/jointset/bladeJoint/bladeangle/speed
      1.49408883	     -0.01456469	     -0.06159714	      0.00762487	      0.03099518	    -33.13983772	     -8.80729580	     -5.34259927	      4.94800629	     38.86231554	      3.10274644
      1.49629911	     -0.01470144	     -0.06214014	      0.00769338	      0.03100222	    -33.15713976	     -6.85832605	     -5.33070427	      5.77410316	     38.86586444	      0.16149913
      1.49850938	     -0.01483937	     -0.06266674	      0.00776193	      0.03103609	    -33.17025986	     -5.04713238	     -5.31719247	      6.43588993	     38.86326428	     -2.46120849
      1.50248564	     -0.01509037	     -0.06357769	      0.00788556	      0.03115845	    -33.18472688	     -2.35879530	     -5.28958908	      7.40774973	     38.84539872	     -6.34667349
      1.50646190	     -0.01534492	     -0.06444604	      0.00800983	      0.03135969	    -33.19005470	     -0.44495980	     -5.25853621	      8.18563147	     38.81414074	     -9.21964198
      1.51200438	     -0.01570533	     -0.06560171	      0.00818466	      0.03174693	    -33.18768567	      1.10574741	     -5.21062308	      9.07542836	     38.75508157	    -11.86117187
      1.51754686	     -0.01607203	     -0.06671348	      0.00836191	      0.03222765	    -33.17965799	      1.64447847	     -5.15815611	      9.84328804	     38.68481171	    -13.33024897
      1.52308934	     -0.01644479	     -0.06779523	      0.00854204	      0.03278059	    -33.17091391	      1.39091114	     -5.10161990	     10.55093937	     38.60892512	    -13.92046664
      1.52584393	     -0.01663227	     -0.06832599	      0.00863274	      0.03307609	    -33.16754011	      1.04547084	     -5.07208475	     10.89349190	     38.57051696	    -13.94417983
      1.52859851	     -0.01682122	     -0.06885784	      0.00872426	      0.03337675	    -33.16518395	      0.66439763	     -5.04160193	     11.23997664	     38.53215184	    -13.91139184
      1.53891183	     -0.01754173	     -0.07087275	      0.00907439	      0.03452757	    -33.16586161	     -0.80779408	     -4.91877805	     12.59335461	     38.38928965	    -13.79463211
      1.54544666	     -0.01800909	     -0.07216750	      0.00930244	      0.03526892	    -33.17425154	     -1.75659367	     -4.83360966	     13.46706786	     38.29938726	    -13.71783639
      1.55198148	     -0.01848495	     -0.07347361	      0.00953532	      0.03600343	    -33.18875425	     -2.67699782	     -4.74287127	     14.29578320	     38.21004153	    -13.62366991
      1.56011854	     -0.01908948	     -0.07511577	      0.00983197	      0.03690814	    -33.21506103	     -3.78140422	     -4.62256576	     15.26214527	     38.09974475	    -13.48156283
      1.57476130	     -0.02021134	     -0.07812806	      0.01038446	      0.03856787	    -33.28505074	     -5.80290191	     -4.38635183	     17.03316227	     37.90426426	    -13.22673403
      1.59029907	     -0.02145069	     -0.08141467	      0.01099799	      0.04042080	    -33.39292780	     -8.11109652	     -4.10574484	     19.12218612	     37.70049950	    -13.01023241
      1.60005180	     -0.02225496	     -0.08352405	      0.01139809	      0.04163526	    -33.47946738	     -9.64679653	     -3.91238748	     20.54404615	     37.57416832	    -12.89994839
      1.61838732	     -0.02382344	     -0.08758232	      0.01218262	      0.04393190	    -33.68269812	    -12.48359009	     -3.51145163	     23.13523182	     37.33970497	    -12.65657380
      1.62347697	     -0.02427212	     -0.08872950	      0.01240783	      0.04456428	    -33.74815582	    -13.23940770	     -3.39199193	     23.80804309	     37.27550130	    -12.57249919
      1.62856663	     -0.02472666	     -0.08988487	      0.01263627	      0.04520560	    -33.81749628	    -14.01120562	     -3.26906679	     24.49944284	     37.21171959	    -12.49141939
      1.64215627	     -0.02596933	     -0.09301167	      0.01326248	      0.04696749	    -34.02235858	    -16.16075979	     -2.92304531	     26.45336012	     37.04333872	    -12.29601388
      1.65574591	     -0.02725511	     -0.09623706	      0.01391327	      0.04882870	    -34.25740706	    -18.45816239	     -2.54905935	     28.63070259	     36.87717785	    -12.17498714
      1.66103234	     -0.02776725	     -0.09752411	      0.01417339	      0.04958355	    -34.35745112	    -19.39366804	     -2.39529311	     29.54710875	     36.81287332	    -12.15447433
      1.66631878	     -0.02828622	     -0.09881473	      0.01443751	      0.05033607	    -34.46243626	    -20.32085585	     -2.23669943	     30.44500301	     36.74869199	    -12.12291530
      1.67530414	     -0.02918393	     -0.10099887	      0.01489544	      0.05158599	    -34.65190253	    -21.83921863	     -1.95668145	     31.85898474	     36.64020600	    -12.01240294
      1.68051742	     -0.02971375	     -0.10226124	      0.01516622	      0.05229513	    -34.76797633	    -22.68778856	     -1.78860188	     32.61651054	     36.57782436	    -11.91654850
      1.68573069	     -0.03025020	     -0.10354500	      0.01544072	      0.05301612	    -34.88847632	    -23.54612169	     -1.61655951	     33.39767685	     36.51592939	    -11.83584108
      1.69449795	     -0.03116778	     -0.10579376	      0.01591107	      0.05429515	    -35.10150986	    -25.06782722	     -1.31740525	     34.88158840	     36.41241555	    -11.79856741
      1.69988991	     -0.03174208	     -0.10723305	      0.01620604	      0.05512396	    -35.23931368	    -26.05309793	     -1.12661231	     35.90164459	     36.34871409	    -11.83770573
      1.70894395	     -0.03272388	     -0.10962202	      0.01671149	      0.05651843	    -35.48280969	    -27.73114475	     -0.79373996	     37.59984426	     36.24129085	    -11.86513254
      1.71799800	     -0.03372672	     -0.11187725	      0.01722933	      0.05786088	    -35.74141056	    -29.38916625	     -0.44628517	     39.12185232	     36.13434888	    -11.73090654
      1.72269520	     -0.03425488	     -0.11301377	      0.01750271	      0.05854590	    -35.88146455	    -30.24676473	     -0.26079267	     39.86737528	     36.07952639	    -11.61794341
      1.73032515	     -0.03512481	     -0.11506010	      0.01795396	      0.05975933	    -36.11777172	    -31.71106813	      0.04878675	     41.33950243	     35.99101480	    -11.62614424
      1.73667139	     -0.03586096	     -0.11696728	      0.01833669	      0.06087244	    -36.32308045	    -33.00281728	      0.31574598	     42.83304938	     35.91668002	    -11.83023982
      1.73974470	     -0.03622195	     -0.11795826	      0.01852464	      0.06144597	    -36.42550352	    -33.65314554	      0.44861837	     43.64522828	     35.88008146	    -11.99385082
      1.74277575	     -0.03658097	     -0.11892935	      0.01871175	      0.06200674	    -36.52847869	    -34.28839683	      0.58212466	     44.43072236	     35.84348019	    -12.14576685
      1.74580681	     -0.03694284	     -0.11982967	      0.01890049	      0.06252716	    -36.63332714	    -34.88840615	      0.71784828	     45.10583533	     35.80653080	    -12.22186099
      1.75235914	     -0.03773375	     -0.12152717	      0.01931352	      0.06350977	    -36.86586214	    -36.06067921	      1.01719755	     46.17716948	     35.72658184	    -12.12067681
      1.75754977	     -0.03836750	     -0.12262881	      0.01964488	      0.06414812	    -37.05517725	    -36.86599714	      1.25824832	     46.64586828	     35.66444883	    -11.78154686
      1.75998463	     -0.03866663	     -0.12307104	      0.01980139	      0.06440435	    -37.14535928	    -37.20554066	      1.37196536	     46.74898838	     35.63604221	    -11.54324000
      1.77215895	     -0.04018250	     -0.12635532	      0.02059601	      0.06639752	    -37.61144352	    -39.62642397	      1.95131198	     49.10626713	     35.49848810	    -11.47151503
      1.77541628	     -0.04059613	     -0.12764213	      0.02081356	      0.06720074	    -37.74198488	    -40.54519060	      2.11334985	     50.43440696	     35.46050634	    -11.87954226
      1.77878670	     -0.04102884	     -0.12915651	      0.02104163	      0.06815426	    -37.88041293	    -41.61880783	      2.28609037	     52.12313505	     35.41948747	    -12.49362821
      1.78006877	     -0.04119483	     -0.12978094	      0.02112926	      0.06854952	    -37.93405248	    -42.05989188	      2.35337717	     52.84892014	     35.40328998	    -12.77804277
      1.78176660	     -0.04141586	     -0.13058329	      0.02124608	      0.06905580	    -38.00595111	    -42.62560987	      2.44390322	     53.76575890	     35.38128550	    -13.12940928
      1.79025575	     -0.04253790	     -0.13344020	      0.02184060	      0.07078679	    -38.37725306	    -44.61726070	      2.91350479	     56.29709402	     35.26604249	    -13.68697283
      1.79541661	     -0.04322891	     -0.13422943	      0.02220715	      0.07117641	    -38.60908042	    -45.13508027	      3.20420510	     56.14366256	     35.19675235	    -13.04015480
      1.79944450	     -0.04376995	     -0.13434333	      0.02249384	      0.07112546	    -38.79105643	    -45.16818907	      3.42855545	     55.12216134	     35.14614439	    -12.01174013
      1.80021469	     -0.04387341	     -0.13431660	      0.02254860	      0.07108126	    -38.82583352	    -45.13858505	      3.47090195	     54.83955289	     35.13698791	    -11.76442393
      1.80098489	     -0.04397685	     -0.13430293	      0.02260334	      0.07104731	    -38.86059073	    -45.12045433	      3.51303709	     54.58231706	     35.12801861	    -11.53072737
      1.80483586	     -0.04449441	     -0.13459173	      0.02287699	      0.07115263	    -39.03459422	    -45.33241470	      3.72170423	     53.97889537	     35.08534545	    -10.73540663
      1.80863924	     -0.04500779	     -0.13546331	      0.02314853	      0.07171078	    -39.20819923	    -46.04066463	      3.92765540	     54.50741204	     35.04503477	    -10.56406580
      1.81185688	     -0.04544547	     -0.13665776	      0.02338052	      0.07253972	    -39.35783836	    -47.03085865	      4.10495929	     55.83478187	     35.01062224	    -10.89947896
      1.81466828	     -0.04583154	     -0.13804579	      0.02358579	      0.07353472	    -39.49162796	    -48.19213425	      4.26435300	     57.66043372	     34.97913676	    -11.55566554
      1.81756575	     -0.04623401	     -0.13981374	      0.02380066	      0.07482722	    -39.63334785	    -49.68053966	      4.43493612	     60.19699070	     34.94424548	    -12.58888747
      1.81913329	     -0.04645402	     -0.14091345	      0.02391859	      0.07564048	    -39.71194148	    -50.61013170	      4.53056625	     61.84837514	     34.92396858	    -13.29985706
      1.82005374	     -0.04658404	     -0.14160556	      0.02398844	      0.07615499	    -39.75879326	    -51.19623079	      4.58797783	     62.90846208	     34.91151444	    -13.76659995
      1.82121690	     -0.04674926	     -0.14247563	      0.02407740	      0.07679248	    -39.81876933	    -51.91873489	      4.66192549	     64.22031151	     34.89515877	    -14.34658914
      1.82703271	     -0.04758909	     -0.14614405	      0.02453160	      0.07917712	    -40.12914044	    -54.53816762	      5.05057638	     68.91232285	     34.80511119	    -16.37735656
      1.83040201	     -0.04808430	     -0.14774672	      0.02479978	      0.07993935	    -40.31432455	    -55.29230255	      5.28521807	     70.19272394	     34.74893942	    -16.88318908
      1.83311851	     -0.04848709	     -0.14875804	      0.02501738	      0.08021847	    -40.46487598	    -55.48831779	      5.47640064	     70.44751285	     34.70294213	    -16.92751224
      1.83474626	     -0.04872963	     -0.14924368	      0.02514799	      0.08024062	    -40.55516609	    -55.42469461	      5.59095681	     70.26227424	     34.67547858	    -16.79620901
      1.83637400	     -0.04897290	     -0.14964490	      0.02527854	      0.08014623	    -40.64518960	    -55.13966189	      5.70496711	     69.76168768	     34.64833363	    -16.53428248
      1.83800175	     -0.04921676	     -0.14997041	      0.02540884	      0.07992429	    -40.73449018	    -54.51446255	      5.81785008	     68.86192806	     34.62170748	    -16.17478381
